<?xml version="1.0" encoding="UTF-8"?>
<svg id="Layer_1" xmlns="http://www.w3.org/2000/svg" version="1.1" viewBox="0 0 1024 1024">
  <!-- Generator: Adobe Illustrator 29.6.1, SVG Export Plug-In . SVG Version: 2.1.1 Build 9)  -->
  <path d="M514,128l12.5,52c21.5,4.6,43,9.9,61.1,22.8,1.5.3,3.2-1.4,4.4-2.3,15.7-12.1,31.4-33.4,46.3-47.2s4-3,4.6-2.4l-26.8,71.7c-1.2,5.8,2.6,5.4,5.2,8.4,8.7,9.9,14,21,22.3,30.7l65.3-12.8c-.2,2.5-3.7,4.4-5.5,6-16.4,13.5-33.7,26-48.3,41.7,1.9,11.2,4.3,22.4,4.9,33.8s-1.6,12.3.4,18.6l42.5,18.5c.4,1.9-.7,1.5-2,2-5.8,1.9-44.1,9.5-45.5,11.5-3.4,17.9-10,34.7-18.3,50.8l1,4.6,27.9,38.1-3,1.1c-11.2-4.7-22.7-8.7-34-13.1s-3.8-3-5.7-3.3c-5.3-1.1-16.1,12.4-20.3,16.4-1.6,1.5-11.8,9.3-12,10.2l1,39.8c.6,2.9,5.1,4.8,7.7,6.3,3.7,2.2,29,16.3,30.7,16l48.6-49.8-19.8,62.5,1.7,2,34.4,15.3,38.6-31.8-11.9,45.3c15.5,9.8,31,17.8,43.9,31.1,38.8,40.1,38.8,119.7,43,173,.5,5.9,5.9,16.5-2.2,18.8l-42.7,11.8,3.9,50.9c-2,.5-1.9-.8-2.8-1.7-13.1-12.9-24.3-27.8-37.9-40.2l-51.3,9.3c-2.2,1.1-2.6,7.3-3,10-1.8,13.3-1.3,27.1-3,40.5l-28-45.5-2.5-.6-75.4,7.2-12.1,42.9c-2.3.5-1.6-.3-2.2-1.3-6-9.4-8-28.5-14-38s-.9-2.1-2.4-2.5l-62.3-.7-19,41.5-11-43.5c-2.4-2.1-26.3-2.2-31.5-2.5s-27.6-4-31-1l-25.5,41-3.5-47-51.1-10-4,1c-4,5.1-9.5,8.7-14,13-7.8,7.6-14.9,17.8-23.5,24.5s-1.3,1.9-3,1.5l4.5-49-45.4-14.6c-.9-7,1.4-14,1.9-20.9,3.1-44.3,3.7-98.1,22.2-138.8,10.7-23.7,28-37.5,49.3-51.7,2.9-1.9,13.8-7,14.3-9.6l-11.8-44.4,40.3,32.8,30.9-14,2.4-3.4-18.7-61.4c3.9-.3,4.8,3.7,7,5.5,15,13.4,28.9,27.8,43.8,41.3,2.1.5,21.5-10.7,25-12.7s10.7-5.6,11.3-8.7l.9-39.8-27.9-26.3-44,16.5,1-3.5,25.5-36.5.3-3.2c-8.8-16.5-14.8-34-18.8-52.3l-35-10-9-5,39.5-18.5c.9-16.2.5-32.7,4.5-48.5-.2-2-8-9.1-10-11-11.5-11.2-30.1-23.9-40-35-1-1.1-2.4-1.6-2-3.5l63.4,14.8c1.4-.3,12.3-21.1,14.6-24.3s11.4-11,10.8-14.8-6.7-15.2-8.6-20.5c-7.7-21-15.3-42-22.2-63.3l60.5,61c1.8,0,15.6-8.9,18.8-10.2,8-3.5,22.8-7.9,31.5-9.5s9.8,1,12.8-2.2,3.4-9.2,4.2-11.8c3.3-11.1,4.9-28.1,9.2-37.8s1-2.8,3.1-2.4Z"/>
  <path d="M813,282l5.9,42.6c8.2,3.2,16.8,3.9,25.1,6.9s14.5,8,17.3,7.3l37.8-30.8-18.6,47.5c0,3.9,11.1,13.2,13.5,17.1s4.6,12.1,6.3,13.2l47.8-6.8c.4,1.9-1,2.4-2.1,3.4-10.4,9.5-25.3,17.6-36.4,26.6l-1.5,2.6,2.5,34.5,34.5,18.5c0,2.6-34.9,4.8-38.8,7.7-2.8,12-8.7,23-13.2,34.2l24,34.6-37.5-15.6-17.1,14.6c-4,4.9.3,25.1-1,32.1l33.1,18,40.4-33-14.9,45.3,24.4,17.7,32.5-11-18.4,22c-3.9,4.8,2,8.6,3.9,13,3.9,9,6,19.7,9,29l28.5,6.5c0,1.6-24.1,11.3-25.6,15.5l3.2,57.1-38.4,12.1,2.9,35.9c-2.8-2.7-6.2-4.9-9-7.5s-17.6-18.9-20.5-19.5c-5.5-1.1-15.2,2.7-21.3,3.7s-16.2,2.1-24.2,3.8l-3,32.5c-2.4.6-1.6-.4-2.2-1.3-3-4.4-14.8-25.8-17.8-27.2l-23,1.5-.8-15.8,35.5-14,2.3-3.2c-13.5-1.9-27.8-6.4-40.5-11l-6.4-51.3,40.9-20.2c-.6-1.2-3.4-2-4.7-2.3-11.3-2.2-23.1-3.2-34.5-5.5-2.6-.6-6.5-.7-8.3-2.7s-5.7-14.4-7.7-18.3-10.9-19-10.9-21.1,1.5-4.6,2.6-6.5l16.4-21.6c-1.2-1.5-1.3-1.5-3-1.1-10.9,2.6-21.4,7.7-32.3,10.4-1.7-.2-27.1-16.1-29.8-18.3s-2.3-1.8-1.5-2.5c2.8-2.3,10.2-4,11.3-7.7l.7-32.3c-4.4-5.8-11.6-9.6-16.5-14.5s-11-13.7-13.8-18.2c-6.3-9.8-9.6-19.1-13.4-30.1l-25.8-5.3c-.4-1.7.5-2,1.5-3,3.6-3.5,19.5-11.1,20.3-14.7l-1.9-22.8c-1.3-5.6,3.5-15.2-.4-19.6s-16.2-9.5-21.2-12.7-1.8,0-1.3-2.2l29-2.5c7.7-15.7,14.4-32.2,29-43.1l-17.9-49.3,41.3,32.9c11.7-6.3,24.3-9.6,37.3-11.8l13.7-40.3,2.8-1.7Z"/>
  <path d="M226.2,324.8c3.3,2.2,7.5.7,11.2,1.3,10,1.7,19.6,6.1,28.9,9.7l36.7-32.8-16.7,48.3c5.6,7.2,13.1,13.1,18.2,20.7,7,10.5,2.2,13.5,17.2,15.8,7,1.1,14.8,1.1,21.9,2.1s2.5,0,3.5,1.5c0,1.5-21.8,12.8-24.9,15.1s-2.8,1.9-2.8,3.7c-.1,5.4,2.4,14.3,2.7,20.3s.2,7.1.2,9.9-2.1,6.2-.6,8.5l26.5,14.5-30,7c-7.3,20.1-14.4,37-29,53s-16.8,14.7-17.5,16.5c-1.8,4.2.4,8.4.5,12.4.2,6.6-.4,13.2.2,19.8.5,2.8,15,7.8,12.8,10.7l-32.5,20.7-32.5-11.6,17.6,29.5-19.6,39.1-2.6,1.4-41.4,5.1,3.3,3.2,34.8,17.5-6.5,52.4-39.6,10.9c-.5,2.6.4,1.5,1.4,2.1,11,5.9,23.7,9.9,34.6,16.4,2,2.3,0,9.5-.5,12.5-2.4,3.2-22.6-1.7-27.3.2-1.5.9-12.7,21.6-15.4,25.1s-1,2.1-2.8,1.7c-.2-9.8-.1-20.1-3-29.5-1.8-1.9-15.3-2-19.3-2.7-9-1.7-17.9-5.7-27.2-5.7-5.3,1.5-27.1,25.9-29,26s-.8-2.2-.8-2.8c.3-5.8,4.4-29.1,2.8-32.2s-1.3-1.5-2.3-1.7c-5.1-1-29.8-7.1-31.1-10.9l2.4-55.4-26.5-14c5.1-1.7,27.7-3.2,29.8-6.7s4.2-19,7.1-25.9,7.3-11.2,7.1-12.9l-16.1-23.5,28.5,9,24-18,.3-3.2-16.8-42.7,43.4,33,31.7-16.5,1.9-29-.9-2.1c-3.1-2.2-6.2-4.6-9-7.1s-5-7.4-8.6-7.4l-39.5,17.1,25.5-35c.7-1,.6-2,.3-3.2-.7-2.8-5.9-10.2-7.6-14.5s-3.5-12.1-5.5-18c-1.2-1.2-11.8-2.6-14.4-3.1-7.2-1.2-16.5-1.4-23.1-2.9s-3.2,0-2.2-1.7c1.5-2.9,31.8-13.4,35.9-18.2.6-11.9-1.2-24,1.9-35.7-.6-2.4-34-26.1-39-30.1s-2.5,0-1.9-2.6l48.3,6.8c3.9-5.3,6.3-11.4,10.2-16.8s9.4-9.9,10-11.1c1.8-4.1-2.6-9-3.9-12.1-5.6-12.9-12-25.6-16.6-38.9,12.3,7.8,22.3,19,34.1,27.4,1.9,1.4,6.1,4.7,8.2,4.4s12.9-6.4,17.2-7.9c7.4-2.5,14.5-2.5,21-6l8-45,14.7,44.8Z"/>
</svg>