<?xml version="1.0" encoding="UTF-8"?>
<svg id="Layer_1" xmlns="http://www.w3.org/2000/svg" version="1.1" viewBox="0 0 1000 1000">
  <!-- Generator: Adobe Illustrator 29.6.1, SVG Export Plug-In . SVG Version: 2.1.1 Build 9)  -->
  <path d="M452.9,530.5c0,32.2-22.7,58.7-51.6,58.7s-51.6-26.5-51.6-58.7,22.7-58.7,51.6-58.7,52.1,26.5,51.6,58.7Z"/>
  <path d="M643.4,530.5c0,32.2-22.7,58.7-51.6,58.7s-51.6-26.5-51.6-58.7,22.7-58.7,51.6-58.7,52.1,26.5,51.6,58.7Z"/>
  <path d="M896.2,58.4H97c-27.8,0-50.4,22.6-50.4,50.4v799.2c0,27.8,22.6,50.4,50.4,50.4h799.2c27.8,0,50.4-22.6,50.4-50.4V108.8c0-27.8-22.6-50.4-50.4-50.4ZM781,656c-49.7,37.1-97.9,59.7-145.2,74.4-11.7-16.1-22.1-33.2-31.1-51.2,17.1-6.5,33.5-14.5,49-23.9-4.1-3-8.1-6.2-12-9.5-93.2,44.1-195.8,44.1-290.2,0-3.9,3.3-7.9,6.5-12,9.5,15.5,9.3,31.8,17.3,49,23.8-9,18-19.4,35.1-31.1,51.2-47.3-14.8-95.5-37.3-145.1-74.4-10.2-108.8,10.2-219.2,85-332.3,37.1-17.4,76.9-30.1,118.4-37.3,5.1,9.2,11.2,21.6,15.3,31.5,43.3-6.6,87-6.6,131.2,0,4.1-9.9,10.1-22.3,15.2-31.5,41.5,7.2,81.2,19.8,118.3,37.2,64.9,97,97.2,206.3,85.3,332.4Z"/>
</svg>