<?xml version="1.0" encoding="UTF-8"?>
<svg id="Layer_1" xmlns="http://www.w3.org/2000/svg" version="1.1" viewBox="0 0 1024 1024">
  <!-- Generator: Adobe Illustrator 29.6.1, SVG Export Plug-In . SVG Version: 2.1.1 Build 9)  -->
  <path d="M658.6,522.6c-4.1,4.1-11.6,10.5-16.2,14.3s-12.5,9.2-18.4,13.6c-5.2,1.4-13.5-2.2-19.5-2.6-40.1-2.2-84.5,24-81.5,68.5,2.4,35.9,35.2,56.6,69.5,55.6,29.4-.9,47.8-8.7,68-30,4.2-4.4,7.7-12.9,15-13,11.5-.2,26.5,9.6,37.3,13.8,8.3,3.2,18.3,4.9,26.3,7.7,9.6,3.4,18.4,8.9,28.3,11.3,5.6-5.9,13-9.9,19.2-14.8s11.8-11.1,18-16c1.6-1.3,11.4-9.1,12.5-8-3.3,11.1-8.1,21.9-11.5,33-.6,2-.4,4.1-1,6-1.5,4.9-6.7,14.7-5.4,19.2,15.8,14.7,28,32.1,40.8,49.2l44-.5c.3,3.2-3.7,3.3-5.5,5s-2,3.3-3.4,4.6c-4.2,3.7-22.4,14.5-23,18,2.2,13.4,4.3,26.7,6.5,40s1.1,2.6,1.4,4.1c1.1,6.8,1.1,18.6,3.3,24.7s2.1,2.6,3.8,3.2l38,10.5c1.7,1.7-4.2,3.2-5,3.5-4.8,1.4-29.8,6.7-31.5,9.5-2.4,13.1,3.3,27.6,1.6,40.6s-15.1,8.3-21.7,9.3c-19.8,3-39.7,4.1-59.8,7.2-3.2.5-6.2,1.9-9.5,2-.4,9.6-2.4,21-2.2,30.3s.6,2.3,1.1,3.5c-1.7.4-2-.5-3-1.5-8.7-8.9-16.5-18.9-25-28-1-1.2-2.1-1.5-3.5-1.5-4.2-.2-14.9,2.6-20.2,3-39,3.4-78.5,7.1-117.8,9.1-14.3.7-28.5.6-42.8,1.2-6.9,1.6-7.3,20-12.2,24.8-2.8,0-8.2-19.2-10-21.9-2.7-4-5.5-.8-9-1-72.1-3.1-145.7-1-218-11.1l-67-6.6c-5.3.5-15.4,20.4-19.5,25s-2,2.9-4,2.5c2-9.4-1-20-.1-29.9l-71.8-10.7c-4.3-3-1.4-13.3-1.1-18s-.9-3.1-.8-4.8c.5-7.9,3.9-15.6,1.4-23.6-1.1-2-13.5-3.3-16.8-4.2-4.6-1.4-9.3-3.7-13.8-5.2s-9.7-.8-11-4,1.1-1.6,2-1.9c12.5-4.7,29.9-5.4,41.2-10.8s3.9-15,4.9-21.1c2.5-16.3,6.9-32.9,11.9-48.1,2-6,4.2-11.9,5.9-18-.3-3.4-12.5-14.1-15.5-17.5s-6.5-8.6-9.8-12.7-5.8-4.2-5.6-9.3c8.1,1.2,40.1,14.5,46,12.6,2.8-.9,10.2-13.7,13-17.1,7-8.2,23.2-20.8,32.2-25.8s8.8-2.6,11.6-6.4l-8.8-39c-.4-11.7-4.6-23.1-8.1-34.3l56.5,59c6-2.7,28.5-7.9,31.5-12.5s-1.7-15.8-1.1-20.6c2.9-3,14.2,14.7,18.3,14.8l55.7-19.3c5-5.8,12.4-3.2,16.8-9.2l2.5-31c-1-2.1-16.5-11.7-19.8-14.3s-10.3-12.4-16.1-12.9c-10.8-1-21.8,6.1-31.2,10.7s-3.9.6-5.5,1.5-3.7,4.8-7.6,4.8l22-39.5c-.2-2.3-3.2-3.7-4.5-5.6-27.5-42-40.4-77.8-40.6-128.5-.2-65.9,17.3-116.8,67-162,2.9-2.7,10.7-6.5,12.1-9.9,2.8-6.8-.9-17.4-1.1-24.6,11.6,3.7,13.4,18.4,26.2,9,27.3-19.8,81.6-29,115.3-25.1,72,8.4,141,59.7,167,128,4,10.5,14.4,51.1,14.2,61.4-.9,55.2-11.8,117.3-52,158.3Z"/>
  <path d="M734,144l-21.8,36.3c.3,3.2,3.8,4,5.2,5.7,8.5,10.5,18.6,23.6,26,35s6.8,14.3,8.6,15.4c3,1.9,57.6-14.2,66-13.5l-50.9,42.7,11.4,37.2c1.8,2.9,20.3,11.7,24.1,12,6.6.6,7.9-3.5,13.4-5,.7,3.8-1.7,7-2,10.5-.7,9.1,5.4,9.8,10.5,15.5,5.2,5.8,8.5,13.7,11,21,2.4,7.3,2.2,20.2,10.3,21.7l28.6,4.4,1.7,2.3c-6.6,7.8-27.6,13.5-33,21s-2,15.5-3.6,21.4-7.2,16.4-10,22-3.8,5.7-5.2,8.8l20.8,39.3-39.7-16.7-24.8,12.7c-5.1,4.1-7.8,16.8-10.8,23.2-4.3,9.1-12.5,21.3-18.3,29.7s-10,9.3-9.5,15.5,1.7,4,2,6.1c.5,3.6-.2,7.7,1,11.4-5.5.8-10.3-7.9-14.3-7.1s-5.2,6.5-7.2,8.1c-21.8,16.8-37.9,29.2-64.7,38.3-3.3,1.1-7.4,1-10.5,2.5-5.1,2.5-10.2,11.3-14.5,14.6s-22.5,10.1-27.7,10.2-3.1-1.5-4.5-1.4c-18.2,1-30.4,4.7-45.1-10.1-8.5-8.6-11.6-25.1-7.2-36.3.3-.8,10-13.5,10.8-14.2,3.6-3.3,21.6-10.6,26.4-10.6,9.6,0,26.3,0,35.6,2.5,5.8,1.6,11.9,9.9,18.3,9.3,14.5-6.2,31.2-11,42.5-22.4l-3.8-21.3c3.8,1.7,16.5,12,20,10.5,17.2-16.4,31.4-34.6,42.1-56-4-2.2-8-6-7.9-11.1s1.6-3.7,1.7-5.2c2-32.2.4-68.9.1-101.7-.2-23.3,1.1-46-3.7-68.3-8.5-39.4-40.9-90.4-73.3-114.7-2.6-2-12.9-9-15.4-8.6s-18.2,16.6-19.6,15l3-25.5c0-1.2-.8-1.8-1.5-2.5s-11.2-7.4-12.8-8.2c-83.4-42.1-190.5-24.4-258.2,39.2-31.1,29.2-62.1,75.8-69.3,118.8s1.3,5.3,1.5,7.9-1.5,7.1-1.5,10c-.6,32.6,1.6,66.4,2,98.9.1,13.3,2,33,1,45s-1.5,8.3-2.3,9.3c-1.9,2.3-17.7,2.2-21.3,2.2s-15.3-.3-19.8-1.2-10.6-5-14.7-6.3-9.1-2.8-11.4-2.5l-32.6,19,13.5-37.1c-4.3-6.5-9.9-13.9-12.7-21.2s-5.3-22.7-6.3-23.7l-32.5-14.5c.1-3.7,27.8-7.4,31-12.9s1-13.9,2-19,1.9-6.6,2.6-8.4c2.9-8.1,8.7-14.6,11.2-22.9l-18.9-31.2c10.5,5,21.5,7.9,32.5,11.9l34.2-16.2,9-27.5c.4-1.5.4-3,0-4.5-1-4.4-20.1-24.1-24.3-29.7s-1.9-1.3-1.5-3l37,8.5c1.2-.6,4.5-6.9,5.4-8.7,4.9-9.4,8.9-19.1,14.8-28.2,7.7-11.8,17.6-22.5,26.7-33.3l-42.9-73.3,69.3,43.2c1.3.7,2.7,1,4.2.8s15.5-11.3,18.6-13.4c21.6-14.3,44.1-25.3,69.5-31.5,4.4-3.7,1.2-8,1.4-11.6.4-8.1.8-5.8-.4-13.4s.6-7-.5-10.1c2.4,1.8,4.5,4.7,6.4,7.1,3.4,4.3,13.2,20.4,18.1,20.9s11.2-2.4,15.1-2.8c35.1-4.2,65-3.8,99.8,1.9,3.3.2,11.7,3.9,14.1,3.8,8.1-.2,22.7-28.3,30.5-32.9l-4.5,40c.8,1.6,17.8,8.2,21.3,9.7,4.3,1.8,8.1,2.6,12.9,5.1,18.3,9.8,34.3,24.3,51.9,35.2l40.4-19Z"/>
</svg>