<?xml version="1.0" encoding="UTF-8"?>
<svg id="Layer_1" xmlns="http://www.w3.org/2000/svg" version="1.1" viewBox="0 0 1000 1000">
  <!-- Generator: Adobe Illustrator 29.6.1, SVG Export Plug-In . SVG Version: 2.1.1 Build 9)  -->
  <path d="M353.8,613.7c-87.4-115.4-13.7-283.6,130-295.4,149.9-12.3,252.3,150.8,172.7,279.6-67.4,109.1-224.9,118.6-302.8,15.8Z"/>
  <path d="M899.6,50H100.4c-27.8,0-50.4,22.6-50.4,50.4v799.2c0,27.8,22.6,50.4,50.4,50.4h799.2c27.8,0,50.4-22.6,50.4-50.4V100.4c0-27.8-22.6-50.4-50.4-50.4ZM482.1,265.8c190.4-13.9,320.3,194.3,220,358.4-86.7,141.8-289.3,153.7-390.3,21-113.5-149-15.3-365.9,170.3-379.4ZM781.6,160.6c71.1-9.3,81.6,97.4,13.4,104.4-69.1,7.1-79.7-95.8-13.4-104.4Z"/>
</svg>