<?xml version="1.0" encoding="UTF-8"?>
<svg id="Layer_1" xmlns="http://www.w3.org/2000/svg" version="1.1" viewBox="0 0 1000 1000">
  <!-- Generator: Adobe Illustrator 29.6.1, SVG Export Plug-In . SVG Version: 2.1.1 Build 9)  -->
  <path d="M899.6,50H100.4c-27.8,0-50.4,22.6-50.4,50.4v799.2c0,27.8,22.6,50.4,50.4,50.4h799.2c27.8,0,50.4-22.6,50.4-50.4V100.4c0-27.8-22.6-50.4-50.4-50.4ZM643.3,588.5c-50.6,42.8-135.5,54.6-180.1-2.6-11.6,57.1-23.7,109.3-55.2,159-5.2,8.2-15.4,24.3-21.8,30.7-2.3,2.3-3.8,5.1-7.8,4.5-2.4-.4-5.8-29.6-6.2-34.2-6.9-89.9,28.6-175.4,45.3-262.5-9-33.8-15.3-70.3,1.5-103.2,14.4-28,49.4-47.7,77.8-26.5,41.4,30.8-7.2,116.4-12.4,156.6-6.8,53.2,47.3,72.6,88.6,48.4,49.2-28.9,68.8-118.3,64.8-171.2-9.8-130.2-184.1-144.8-257-57.7-29.6,35.4-45.9,95.7-27.8,139.6,4.3,10.3,14.6,20.4,17.7,27.8,3.5,8.7-4.2,46.9-15.5,48.1-16.5,1.8-46.5-31.4-54-45-30.4-55.1-20.5-128.3,12.4-180,86-134.9,326.9-137.8,389.7,19.1,31.2,77.8,4.3,194.6-60.3,249.1Z"/>
</svg>