<?xml version="1.0" encoding="UTF-8"?>
<svg id="Layer_1" xmlns="http://www.w3.org/2000/svg" version="1.1" viewBox="0 0 1024 1024">
  <!-- Generator: Adobe Illustrator 29.6.1, SVG Export Plug-In . SVG Version: 2.1.1 Build 9)  -->
  <path d="M482,179.5c4.3,1.3,5.9,8.4,8.2,12.3,7.6,12.8,16.4,25.1,24.2,37.8,2.8,2.2,5.9-.2,9.1-.2,13.5,0,27.5,1.1,41,1.1,6.5,0,13.7-2.3,20.8-.2l18.2-41.9,8.4,40.5,66.3,1.3,2.8-1.5,26.9-48.3c.2,7.8,0,15.8.5,23.5.4,5.7.8,14,1.8,19.7s.8,4.7,1.7,5.3c8.6,1.8,16.9.2,25.6.4s19.2,1.3,27.7,1.8,9.8-.5,12.2-.8c4.9-.7,8.2-9.8,11.1-13.8,7.7-10.7,15.7-21.1,22.9-32.1l2.5,2.5-2.1,42.5c11.3.5,22.3.2,33.5,0,4.1,0,5.2,2.2,10-1,17.4-11.5,34-29.2,51-42,4.9-3.7,10.1-7,15.5-10-5.3,12.4-9.3,25.5-14.5,38s-4.5,7.2-5.3,9.7-.6,4.3,0,5.1c1.6,2.5,31-1.5,32.7,3.8.4,1.1,1.1,9,1.2,10.8.9,20-.2,40.7-.2,60.9s-4,14,3.8,15.4c8.9,1.6,20.7-2,29.8-1.8s4.3,1.3,6.5,1l-40.9,27.7c-.3,2.3.9,4.4.9,6.8.4,13.7-1.2,27.4-1.1,41,0,9.6,2.5,19.3,0,28.9l44.1,10.1-25,11-18.1,6.9-.9,2.1,1.5,73.4c.6.9,17.8,7.5,20.5,8.5,5.5,2,13.1,1.7,17,6.5l-38.9,12.2c-.3,3.1-.2,6.3-.1,9.4.8,22.4,1.2,46,1,69,0,5.6-2.7,11.5.5,17.5l37,13,2.5,2c-8,2.5-34.7,5.2-39.4,11.1s-.1,6.1,0,9.5-1.3,6.8-1.4,9c-.2,5.5,3.6,11.3-5.8,12.4-16.8,2-40.6.3-57.9-.7-5-.3-8.7,2.3-14.4-1.8s-5.9-18.6-7.6-23.4c-5.7-16.5-25-40.6-38.6-51.5-4.6-3.7-10.1-5.5-14.4-8.6s-6.6-7.5-8.2-7.9-2.9,1.5-3.8,1.5c-4.7.3-15.2-5.1-19.1-5.3s-7.8,1.5-11.4.7l16.8,7.7c39.3,11.4,66.1,47.6,74.7,87.3,1.9,8.7-.7,17.1,1.6,25.4l31.9,26.1-38-3.5c-2,13.3-9.9,24.4-17.2,35.3-2.1,3.1-5.7,4.8-5.8,9.3-.2,5.3,15.3,32.1,14,33.4l-32.6-17c-8.4,1.7-18.7,9.2-27.1,10.8-17.7,3.2-38.9,5.2-56.7,1.2s-16.1-6.5-24-7.9l-29.5,22c-.7-5.6,2.7-10.6,3.9-15.6.9-3.9.9-7.6,1.6-11.4.5-2.9,3.1-6.7,2.1-8.9-4.8-4.6-10.8-8.9-15.1-14s-3.8-6.4-5.3-9.6c-1.3-2.6-4-3.4-5-5.1-2.1-3.3-1.8-7.5-6.1-10.9-5-3.9-6.3-1.3-10.4-1.6-7.2-.6-14.3-2-21.6-.9,8.1-8.5,18.4-14.6,25.5-24.1-1.7-9.3,1.3-19.9-1.5-28.5-4.3,0-9.6-1.4-13.5-1.5-14.3-.3-32.8-.8-46.9.1s-6.5,1.4-9.9,1.1c-1.7.5-7.6,10.7-8.9,13.1s-7.3,18.3-10.3,17.7l-7.5-30.6c-15.2-1.6-30.3-1.3-45.5-1.4-30.2-.3-61.1.4-91.1,1-6,.1-13.2-1.1-19.4,0,.7,7.1,1.4,14.3,1,21.5-.2,4-2.8,11.4-1.8,14.7,1.4,4.8,8.2,6.6,11.7,9.3,5.4,4.1,13.8,10.1,18.4,14.6s2.2.9,1.7,2.8c-7-1-40.1-4.5-44-.5-1.7,1.9-.6,4.6-1.2,6.8-1.7,6.4-13.2,12.1-15.1,19.4l-20.1,15.3,6.5,34c-1.7.5-2-.7-3-1.5-3.9-3-23.2-21.3-25.5-21.5-3.4-.3-10.2,2.8-14.3,3.4-19.2,2.7-37.8-.1-55.5-3.5-1.9-.4-8.9-2-10.3-2.7-2.8-1.2-3.6-4.3-7.8-4.3s-6.2,1.7-8.5,2.6c-9.7,3.5-19.6,9.1-29,13.5-2.1-2.7,14.7-25.3,13.8-31.3s-10.3-12.1-12.7-15.3c-4.2-5.7-8.8-13.9-11.6-20.4s.5-6.2-5-6.7c-10.8-1.1-25.2,5.3-36.5,4.3,7-7.4,16.3-13.5,23.5-20.5,2-2,5.6-5.4,5.5-8,5.8,3.1,2.9-4.1,2.9-7.4-.1-53.4,24.8-93.2,74.8-112.3,4.7-1.8,10.6-.5,13.2-6.2-3.1-.9-6.1,1.4-8.6,1.7s-3.8-.9-6.6-.5c-4.7.7-9.9,5.5-13.7,6.3s-3.6-.8-6.6.4c-13.8,5.4-32.5,23.1-40.9,35.2s-13.5,21.6-14.4,26.7.7,3.9.5,4.8-2.2,1.1-3,2.7-2.7,9.7-3.4,12.5c-1.2,4.8,1.6,7.4-5.7,8.3s-11,.3-13,0-3.7-2-5.1-2.1c-2-.2-3,1.7-4.7,1.8-7,.4-17.7-.5-25.3-.5-9.4,0-19.6,1.4-28.9-.3s-3.2-10.5-3.4-14.5-.9-7-1-11.9c-.3-10-.5-20,0-29.9l.9-1.1,13-.5c-.9-8.6,0-17.6,0-26.3s-.2-6.1-.3-9c-.2-5.8.3-17.4-.6-22.2s-.5-1.9-1.6-2.4l-30.4-16.6c.9-1.4,2-1.4,3.5-1.5,4-.5,28.3-1.7,29.1-2.9.9-7.9-.6-15.7-.6-23.6s1.1-16.3,1-24.1-3.2-10.7,5.1-16.9c11.2-5.1,22.5-10.2,33.9-15.1s12.6-5.5,19.3-8.7c3.9-1.8,11.8-1.3,9.4-7.6l-23.5-46,31.6,20.9c5.6.4,7.6,5.7,12.7,6.1,13.9-21.1,28.6-42.2,40.4-64.3l-19.8-44.7,34.3,22.1c5.6-7.2,10.1-15.3,15.3-22.8s1.8-1.3,2.3-2c5.5-7.9,8.1-18.4,19-20.8h89.1c1.6-1,1.8-2.2,2-3.9.7-5.5-3-29.1-1-31.5,2.3-.6,1.6.5,2.3,1.3,2.1,2.6,3.3,6,5.3,8.7,6,8.2,12.5,16.2,18.5,24.5,10.7,3.7,22.8.6,34,1.6v-87.6c3.8-5.1,28.8-1.8,35.5-1.9,5.3,0,13.7-3,20-1.6l18.5,2v-52ZM248.5,419.4c-1.1,2.2-5.7,8.2-7.6,11.4-7.7,12.6-19.8,29.3-25.9,42.1-.6,1.2-1.3,2.1-.9,3.6h105s-2.5-48-2.5-48c2-.4,1.4.8,2.1,1.9,5.8,8.8,11.3,17.2,17.2,25.8,2.1,3,10.8,17.8,12.2,18.8,3.5,2.4,17.9-.5,22.9.5,2.2-5.6,0-10.5,0-15.5,0-24-.4-47.9-.6-71.3s1.7-14.4-.2-15.8c-5.8,0-11.8-1.4-17.6-1.5s-16.3,1.8-24.1,1.9c-12,.2-24.8-1.1-36.9-.8-3.8,0-8.6,1.7-12.8,1.2-3.3,1-21.2,32.2-25.3,37.7s-4,3-4.2,3.3c-.6,1.1,0,3.1-.8,4.7ZM768,682.9c-3.2-3.4-13.5-7.8-18.2-8.8-28.4-6.2-49.7,10.2-58.4,36.3-3.7,11.1,3.4,32.2,11,41,20.6,23.9,65.7,20.9,78.9-9.1.6-1.3,4.5-11.7,4.5-12.3.2-4.7-1.3-18.9-2.3-23.6s-7.9-17.2-9.8-18.7c-3.1-2.5-2-.9-5.7-4.8ZM271.5,767.5c8.7-.6,13.3-3.3,20.4-6.6s3.4-.3,5-1,6.8-6.5,8-8c14.6-17.3,15.8-36.6,4-56-16-26.4-50.4-30.6-73.5-10.5-11.4,9.9-15.9,25.6-14.5,40.5s4.1,17.4,6.3,20.2c10.4,12.9,27.3,22.5,44.2,21.4Z"/>
</svg>