<?xml version="1.0" encoding="UTF-8"?>
<svg id="Layer_1" xmlns="http://www.w3.org/2000/svg" version="1.1" viewBox="0 0 1000 1000">
  <!-- Generator: Adobe Illustrator 29.6.1, SVG Export Plug-In . SVG Version: 2.1.1 Build 9)  -->
  <polygon points="595.7 499.3 440.4 595.7 440.4 404.3 595.7 499.3"/>
  <path d="M899.6,50H100.4c-27.8,0-50.4,22.6-50.4,50.4v799.2c0,27.8,22.6,50.4,50.4,50.4h799.2c27.8,0,50.4-22.6,50.4-50.4V100.4c0-27.8-22.6-50.4-50.4-50.4ZM252.2,434.9c4.7-45.8,6.7-81.2,53.8-101.5,33.7-14.5,111-15.4,149.8-16.5,48.9-1.5,99.8-.6,148.6,2.7,45.5,3.1,119.3,5.4,135,59.6,10.9,37.7,13.5,107.1,11.8,146.8-1.2,27-5.9,93.2-21.4,113.5-28.7,37.7-82,38-125.4,40.9-75,5.1-155.7,4.9-230.6-1.6-48.7-4.2-102.7-10.7-114.8-67.2-11.6-54-12.4-121.9-6.8-176.8Z"/>
</svg>